<?xml version="1.0" standalone="no"?>
<!DOCTYPE svg PUBLIC "-//W3C//DTD SVG 1.1//EN" "http://www.w3.org/Graphics/SVG/1.1/DTD/svg11.dtd" >
<svg xmlns="http://www.w3.org/2000/svg" xmlns:xlink="http://www.w3.org/1999/xlink" version="1.1">
<metadata>
Created by FontForge 20161003 at Sat Apr  6 22:58:42 2019
 By www-data
Copyright France
</metadata>
<defs>
<font id="BabyBossRegular" horiz-adv-x="350" >
  <font-face 
    font-family="BabyBoss"
    font-weight="500"
    font-stretch="normal"
    units-per-em="1000"
    panose-1="0 0 0 0 0 0 0 0 0 0"
    ascent="800"
    descent="-200"
    x-height="817"
    cap-height="839"
    bbox="-11.2308 -196 1331.91 1264"
    underline-thickness="50"
    underline-position="-150"
    unicode-range="U+000D-0153"
  />
<missing-glyph horiz-adv-x="650" 
 />
    <glyph glyph-name=".notdef" horiz-adv-x="650" 
 />
    <glyph glyph-name=".notdef" horiz-adv-x="650" 
 />
    <glyph glyph-name=".null" horiz-adv-x="0" 
 />
    <glyph glyph-name="nonmarkingreturn" horiz-adv-x="333" 
 />
    <glyph glyph-name="controlCR" unicode="&#xd;" 
 />
    <glyph glyph-name="space" unicode=" " 
 />
    <glyph glyph-name="exclam" unicode="!" horiz-adv-x="396" 
d="M287 210q4 -36 4 -37v-166q-33 -6 -34 -6q-31 -1 -187 -1q-6 11 -8 22.5t-1 27t1 20.5q-1 5 -1 64v68l17 8q113 3 209 0zM0 1058h346q-1 -3 -2.5 -8.5t-2.5 -9t-4 -5.5q-44 -49 -79 -83q-30 -30 -22 -73q13 -73 63 -360q5 -31 5 -42q0 -25 -6 -35q-63 -105 -117 -178
q-17 14 -18 15q-14 21 -33.5 50t-38.5 56.5t-34 49.5q-16 22 -10 50q14 72 69 359q0 1 1.5 11t2.5 15q19 44 -25 85q-15 15 -64 67q-2 1 -31 36z" />
    <glyph glyph-name="quotesingle" unicode="'" horiz-adv-x="248" 
d="M50 874q31 2 33 2h116q5 -23 5 -24v-60.5v-51.5q0 -23 -11 -37q-7 -10 -66 -90q-35 -6 -68 0q1 19 15.5 51.5t17.5 48.5q-27 4 -41 7q-6 22 -6 71.5t5 82.5z" />
    <glyph glyph-name="parenleft" unicode="(" horiz-adv-x="452" 
d="M407 898q-14 -19 -15 -21q-79 -104 -82 -109q-67 -91 -86 -220q-14 -100 -9 -167q15 -159 75 -262q16 -27 69 -98q3 -4 48 -58q-4 -11 -5 -11q-37 -34 -150 -135q-230 240 -243 592q-13 346 240 631q22 -14 81.5 -67t76.5 -75z" />
    <glyph glyph-name="parenright" unicode=")" horiz-adv-x="538" 
d="M158 -196q-13 11 -70 61.5t-88 77.5q11 19 46 58q93 105 127 236q50 191 -9 393q-15 50 -54 111q-40 61 -86 114q-1 2 -22 28q12 17 70 69.5t87 72.5q122 -121 184 -285.5t59.5 -330t-65.5 -327t-179 -278.5z" />
    <glyph glyph-name="comma" unicode="," horiz-adv-x="206" 
d="M47 -14q-8 1 -23 2.5t-23 2.5q-1 85 0 153q12 3 24.5 4t29 0.5t23.5 -0.5h77q5 -23 5 -24q1 -63 0 -115q0 -19 -6 -27q-11 -16 -74 -101q-47 -3 -68 2q2 19 17 52t18 51z" />
    <glyph glyph-name="hyphen" unicode="-" horiz-adv-x="417" 
d="M2 236q0 15 -0.5 49t0 58.5t2.5 48.5q11 2 23 2.5t27.5 0t22.5 -0.5q5 1 71 1h76q66 0 71 -1q8 0 22.5 0.5t26 0t21.5 -3.5q5 -23 5 -73t-4 -80q-16 -4 -17 -4q-129 -1 -326 0q-1 0 -21 2z" />
    <glyph glyph-name="period" unicode="." horiz-adv-x="215" 
d="M4 156q26 5 74.5 5.5t83.5 -3.5q3 -11 4 -23.5t0.5 -29.5t-0.5 -24q1 -56 -2 -74q-24 -4 -72.5 -5t-82.5 3q-4 11 -5 22.5t0 27.5t1 24q-1 5 -1 77z" />
    <glyph glyph-name="zero" unicode="0" horiz-adv-x="705" 
d="M444 261q-39 185 -44 205q-2 11 -10 51t-13 62q-5 23 12 39q14 12 24 21q5 4 25 20.5t30.5 25.5t5.5 17l-11 2q-163 0 -271 -1l-17 -5q29 -25 30 -26q52 -44 61 -52q22 -18 15 -48q-15 -58 -65 -271q0 -2 -7 -41q12 -13 36 -43.5t43.5 -53.5t39.5 -43q19 20 37 41.5
t45 56t34 43.5zM0 442q5 119 30 196q27 83 80 141q79 89 199 94q61 3 103 -9q72 -20 121 -72q65 -70 92 -170q51 -185 2 -366q-24 -92 -83 -157q-84 -95 -210 -97q-167 -3 -257 139q-48 74 -63 166q-1 9 -14 135z" />
    <glyph glyph-name="one" unicode="1" horiz-adv-x="480" 
d="M435 5q-29 -4 -122 -4t-118 3q-3 5 -4.5 11t-1.5 10t0.5 11t-0.5 11q0 115 -1 490v47q-23 -5 -24 -5q-76 -31 -140 -45q-1 -1 -15 -3q-6 20 -7 84.5t4 103.5q23 8 25 9q7 2 21 5.5t21 5.5q98 29 155 100q20 25 51 23q6 -1 58.5 -0.5t57.5 0.5q1 0 33 -2q4 -27 4 -28
q1 -42 1 -152q1 -211 2 -634v-41z" />
    <glyph glyph-name="two" unicode="2" horiz-adv-x="672" 
d="M323 220q32 -3 71 -4.5t65.5 -2t72.5 -0.5t66 -1q5 -23 6 -94t-3 -108q-3 -3 -8 -5t-8 -2t-9 0.5t-9 0.5q-53 -1 -271 -1h-61h-66h-60t-64 1q-3 0 -9.5 -0.5t-10.5 -0.5t-9 1t-9 3q-4 24 -5 88t2 111q34 27 36 28q183 141 201 156q38 30 83 75q19 20 40 55q22 36 15 80
q-3 18 -11.5 32t-20.5 23t-28 12q-27 5 -51 -4.5t-38 -32.5q-11 -18 -21 -64q-1 -5 -9 -39q-14 7 -52.5 31t-77.5 50.5t-54 38.5q7 20 7 21q20 40 32 60q53 91 154 118q102 28 185 13q91 -16 151.5 -76.5t74.5 -141.5q10 -53 -3 -106q-24 -95 -77 -141q-63 -55 -89 -75
q-19 -15 -56.5 -43t-45.5 -34q-1 -1 -26 -22z" />
    <glyph glyph-name="three" unicode="3" horiz-adv-x="683" 
d="M185 305q14 -35 15 -39q19 -46 60.5 -62t88.5 4q42 16 51 58.5t-22 75.5q-18 19 -42 21q-37 4 -76 7q-2 0 -40 1q-5 13 -6 27.5t0 33.5t1 27q-2 60 2 83q7 3 15 4t14.5 0.5t14.5 0.5q59 5 67 7q45 8 52 53q8 53 -34 79q-39 21 -78.5 8t-53.5 -48q-1 -2 -14 -35l-15 3
q-62 33 -141 75q-1 0 -17 11q24 64 76 108q59 51 145 70q100 22 181 -4q86 -27 137 -92q63 -80 40 -192q-11 -58 -63 -93q-3 -2 -43 -28q17 -10 18 -11q113 -50 117 -179q5 -131 -93 -205q-23 -17 -52 -29q-122 -49 -234 -34q-94 14 -167 71q-20 16 -39 39q-29 40 -50 94
q17 14 77 43.5t108 46.5z" />
    <glyph glyph-name="four" unicode="4" horiz-adv-x="748" 
d="M371 360q5 21 8 75.5t1 102.5l-4 11q-10 -7 -10 -8q-66 -84 -135 -172v-7q20 -6 66 -6.5t74 4.5zM696 169h-55.5h-55.5q-3 -24 -3 -25v-59.5v-59.5q0 -2 -2 -35q-22 -5 -83 -6t-111 3q-4 20 -4 21q-1 17 -1 116v11.5v14v10.5q-4 5 -9.5 7t-8.5 2.5t-10 0t-8 -0.5h-172
h-127q-2 0 -41 2q-1 3 -2 9t-1.5 10.5t-0.5 8.5v64v64q-1 27 17 51q85 109 257 335q47 61 86 114q14 18 34 18h89.5h77.5q1 0 16 -4q3 -6 3.5 -12.5t0.5 -18.5v-12v-391v-45q20 -7 57.5 -6t56.5 -3q5 -23 5 -87t-5 -97z" />
    <glyph glyph-name="five" unicode="5" horiz-adv-x="684" 
d="M52 853q27 3 234 4.5t272 -1.5q1 0 21 -3v-32q-3 -27 -19 -172q-13 -2 -27 -2h-32h-26h-80h-84q-72 -1 -80 -2q-2 -16 -3.5 -34t-3.5 -38.5t-3 -32.5q7 -1 12.5 0t13.5 6t9 6q62 28 125.5 24.5t119.5 -39t84 -92.5q87 -179 -25 -328q-81 -107 -226 -117q-117 -8 -208 42
q-89 49 -126 141q10 8 22 15t22 12t23.5 12t22.5 12q58 33 93 48q18 -35 18 -37q16 -39 68 -49t84 16q43 33 36 101q-5 54 -57 75q-59 25 -108 -17q-1 -1 -24 -25q-12 -1 -13 0q-35 5 -167 25q-3 22 -2 23q5 77 20 303q7 96 9 119q0 2 5 37z" />
    <glyph glyph-name="six" unicode="6" horiz-adv-x="733" 
d="M320 328q13 -6 14 -6q10 -5 18 3q9 9 4 22q-12 26 -37 25q-23 -1 -39 -8q-49 -23 -44 -69q1 -12 4.5 -34.5t4.5 -27.5q0 -1 -1 -9q-9 -5 -10 -5q-1 -1 -13 -7q2 -23 6.5 -30.5t21.5 -12.5q20 -5 35 -17q34 -26 62.5 -26.5t63.5 25.5q22 15 40 18q16 2 25 17q13 21 -13 33
q-1 1 -10 7q6 30 6 32q4 22 5 40q2 31 -24.5 51.5t-46.5 21.5q-5 -25 -6 -27q-4 -13 -10 -22q-13 -17 -35 -15q-18 2 -21 21zM605 668q-30 -13 -92.5 -39t-94.5 -39q-10 25 -10 26q-2 5 -5 14.5t-4 12.5q-12 36 -50.5 42t-65.5 -26q-17 -22 -28 -62q-8 -30 -15 -113
q15 10 15 11q39 41 106 49q64 7 114 -8q88 -27 131 -110q30 -61 31.5 -130t-23.5 -130.5t-83 -107.5t-138 -60q-125 -21 -229 43q-53 33 -93 97q-51 83 -62 192q-14 137 14 253q22 90 74 163q65 92 164 111q164 31 272 -66q46 -41 72 -123z" />
    <glyph glyph-name="seven" unicode="7" horiz-adv-x="632" 
d="M325 618q-17 2 -35 3t-40.5 0.5t-32.5 -0.5h-107h-105q-5 15 -5 16q5 78 13 179q0 1 4 14l4 3q3 1 4 1q174 1 522 1h34q5 -18 5 -19q1 -77 0 -124q0 -15 -7 -30q-52 -114 -97 -274q-7 -27 -96 -362l-5 -20q-12 -3 -25 -3.5t-30 0t-25 0.5q-30 -1 -80 -1q-73 1 -82 2
q84 291 90 309q17 60 53 172t43 133z" />
    <glyph glyph-name="eight" unicode="8" horiz-adv-x="726" 
d="M429 598q8 46 8 49q4 31 -9 45q-24 28 -52 29q-7 -29 -8 -31q-5 -15 -22 -21q-20 -7 -27 7q6 4 7 4q16 0 19 9q5 14 -10 24q-10 8 -21 9q-33 3 -56 -19.5t-18 -56.5q0 -1 8 -47l-2 -3q-1 -1 -3.5 -2.5t-3.5 -1.5q-11 -8 -12 -18t9 -17q6 -5 10 -6q19 -4 45 -23
q43 -31 90 -2q33 20 50 24q19 5 21 26q0 6 -3.5 9.5t-10 6.5t-9.5 6zM248 207l-10 -6q-20 -14 -7 -30q9 -9 16 -11q19 -4 42 -22q43 -33 92 -3q4 2 9.5 5.5t9.5 6t9 5.5t10.5 5t10.5 3q6 1 14 8q9 8 7.5 17t-13.5 17q-1 0 -9 6q8 53 8 56q4 58 -62 66q-5 -25 -6 -27
q-7 -22 -32 -26q-16 -2 -16 11q7 2 8 2q27 7 13 27q-11 16 -31 16q-34 0 -55 -21t-16 -54q0 -3 8 -51zM134 420q-13 12 -14 12q-90 69 -78 194q7 81 56.5 140.5t127.5 81.5q143 40 270 -13q36 -15 68 -40q39 -31 57.5 -75t16.5 -87.5t-20 -82.5q-7 -15 -37 -47
q-2 -3 -40 -36q27 -21 29 -22q67 -50 84 -118q22 -89 -6.5 -166.5t-111.5 -122.5q-62 -34 -141 -42q-102 -10 -182 8q-82 18 -136 71q-25 25 -40.5 58t-19.5 66.5t2 67.5t20 63q21 40 61 67q3 3 34 23z" />
    <glyph glyph-name="nine" unicode="9" horiz-adv-x="689" 
d="M261 677q8 -6 9 -6q12 -7 21 3q9 9 3 21q-12 25 -38 25q-35 1 -62 -22.5t-22 -61.5q1 -3 11 -63q-13 -5 -14 -6q-11 -3 -13 -12t5 -16q12 -16 20 -17q18 -3 51 -28q41 -31 87 -10q8 3 37 20t48 21q15 4 14 26q0 14 -17 19q-1 0 -8 5q3 24 3 26q1 4 3 13.5t3 14.5
q3 30 -6 48t-37 33q-1 0 -27 11q-9 -34 -9 -35q-6 -18 -21 -26t-32 -2q-15 5 -9 19zM50 153q33 21 93 56t83 50q4 -3 6.5 -6.5t3.5 -7t2.5 -8t2.5 -6.5q15 -32 43.5 -41.5t59.5 6.5q29 15 43 50q16 36 20 93v43q-15 -9 -15 -10q-86 -90 -224 -42q-113 39 -149 165
q-29 105 9 203q48 126 187 163q91 25 182 3q124 -31 187 -149q38 -71 47 -156q21 -180 -30 -326q-25 -75 -67 -126q-75 -92 -195 -103q-73 -7 -127 8q-116 31 -162 141z" />
    <glyph glyph-name="colon" unicode=":" horiz-adv-x="211" 
d="M6 2q-2 31 -2 33v120q12 4 25 5t30 0.5t24 -0.5h74q6 -24 6.5 -77.5t-5.5 -79.5q-57 -3 -152 -1zM4 411q24 5 74 6t80 -3q5 -21 5.5 -73.5t-4.5 -79.5q-22 -4 -71.5 -4.5t-79.5 3.5q-4 7 -4.5 15t0 19t0.5 16v48v53z" />
    <glyph glyph-name="semicolon" unicode=";" horiz-adv-x="215" 
d="M162 139q2 -17 2 -18v-58v-58q0 -19 -13 -36q-7 -10 -64 -88q-22 -6 -68 -1q3 22 4 23q4 11 12 30.5t12 28.5q0 1 4 20q-7 1 -20 2.5t-20 2.5q-6 22 -6.5 75.5t5.5 77.5q26 4 76.5 4t75.5 -5zM6 404q27 4 77 4t74 -4q5 -21 5.5 -68.5t-3.5 -82.5q-11 -5 -23.5 -6t-29 0
t-24.5 1q-55 -1 -74 2q-5 22 -6 70t4 84z" />
    <glyph glyph-name="equal" unicode="=" horiz-adv-x="425" 
d="M369 97q-45 0 -361 -1q-5 24 -6 70.5t3 86.5l17 4h330q1 0 14 -3q4 -11 5 -23.5t0 -29t-1 -24.5q0 -6 -1 -80zM369 343h-361q-5 24 -6 70.5t3 85.5l17 5q133 0 330 -1q1 0 14 -2q4 -11 5 -24t0 -29.5t-1 -24.5q0 -5 -1 -80z" />
    <glyph glyph-name="question" unicode="?" horiz-adv-x="712" 
d="M174 211q37 5 108 5.5t109 -4.5q9 -27 10 -95t-7 -108q-33 -6 -108 -6.5t-110 6.5q-7 28 -7.5 92.5t5.5 109.5zM402 425q-4 -21 -2.5 -69t-4.5 -66q-34 -7 -111.5 -7t-111.5 8q-3 23 -3 24q-1 143 0 180q3 108 116 155q8 4 21.5 8.5l25.5 8.5t21 9q42 23 48.5 65.5
t-26.5 75.5q-27 28 -67 29.5t-70 -24.5q-4 -4 -8.5 -9t-8 -9t-8 -9.5t-7.5 -9.5q-29 7 -97.5 44t-108.5 67q41 85 125 131q185 102 361 -2q183 -109 161 -305q-14 -133 -138 -222q-6 -5 -107 -73z" />
    <glyph glyph-name="at" unicode="@" horiz-adv-x="1094" 
d="M613 457q7 40 7 43q5 32 5 35q1 29 -22.5 51t-54.5 22q-2 -15 -3.5 -21t-5 -16.5t-11.5 -16t-19 -8.5q-9 -2 -27 3q-1 1 -2 1.5t-2 2t-2 3.5t-3 4.5t-3 4.5q25 -6 26 -6q10 0 15.5 8t1.5 17q-10 24 -36 27q-24 3 -47 -6.5t-37 -32t-9 -51.5q1 -3 10 -63q-10 -5 -11 -6
q-14 -6 -17 -13t5 -19q10 -16 20 -17q20 -4 55 -30q43 -33 94 -10q7 3 36.5 20.5t48.5 22.5q5 1 9.5 6.5t6 12.5t0.5 13.5t-4.5 9.5t-10.5 4.5t-9 1.5q0 1 -4 3zM634 290q-167 -63 -290 46q-50 45 -64.5 107.5t9.5 122.5t80 97q94 64 201 34q18 -5 43 -3q22 2 95 1
q1 0 18 -7q9 -19 9 -56v-63.5v-87.5v-16.5v-15.5q0 -25 28 -34q27 -9 44 11q12 14 17 31q27 106 -27 200q-21 38 -60 62q-65 42 -141 51q-82 11 -139 0q-110 -19 -179.5 -103t-63.5 -204q3 -72 49 -133q68 -90 176 -125q83 -27 181 0q3 1 12.5 4t14.5 4h7q21 -21 63 -78.5
t53 -79.5q-19 -11 -20 -11q-97 -45 -213 -43q-237 3 -399 171q-92 95 -118 223q-29 145 35 284q52 114 152 191q50 39 120 62q188 63 365 12q181 -53 284 -200q46 -66 62 -155q18 -99 -5 -186q-30 -112 -117 -153q-135 -63 -249 18q-15 11 -29 21z" />
    <glyph glyph-name="A" unicode="A" horiz-adv-x="922" 
d="M357 628q42 -49 45 -52q19 -21 13 -51q-12 -60 -34 -191q-4 -25 1 -35q30 -55 59 -92q9 12 23 35.5t21 32.5q19 28 13 64q-4 23 -8.5 53t-9 59.5t-8.5 52.5q-3 16 -4 26t-1.5 17t3 13t5.5 9t10 12t14 15l5.5 5.5t6.5 7t4 7.5t3 11q-37 2 -161 1zM288 833q25 4 144.5 4.5
t158.5 -3.5q12 -29 12 -31q26 -75 131 -380q101 -293 133 -388q10 -28 10 -37q-22 -5 -115 -6.5t-149 2.5q-10 15 -19 48t-17 47q-23 3 -127.5 4t-146.5 -3q-9 -14 -17 -47t-16 -46q-23 -4 -128.5 -4.5t-134.5 2.5q-1 3 -2 5t-1 4.5v4.5t1 4t1.5 4t1.5 4.5t2 3.5
q91 267 106 313q64 185 161 467q1 1 11 28z" />
    <glyph glyph-name="B" unicode="B" horiz-adv-x="786" 
d="M256 534q91 0 122 2q13 1 27 7q26 13 26 42q-1 28 -25 38q-17 7 -34 8q-26 2 -80 3q-2 0 -37 -2q-4 -50 1 -98zM256 206q25 -6 72.5 -5t66.5 6q16 5 25.5 16.5t10.5 26.5t-8 27.5t-24 17.5q-19 5 -35 6q-28 1 -96 1l-13 -4q-3 -69 1 -92zM6 844q32 2 33 2h355
q95 0 178 -50q88 -51 109 -150q20 -97 -52 -181q-1 -1 -30 -29q22 -16 23 -17q40 -29 68 -72q37 -59 34 -121t-44 -113q-72 -92 -190 -105q-40 -5 -107 -5q-100 -1 -335 0q-3 0 -10.5 -0.5t-11.5 -0.5t-10 1.5t-10 3.5q-4 24 -4.5 415t4.5 422z" />
    <glyph glyph-name="C" unicode="C" horiz-adv-x="863" 
d="M784 772q-6 -15 -32.5 -62t-54.5 -92t-38 -58q-22 16 -25 18q-57 39 -124.5 35t-117.5 -44q-12 -10 -20 -20q-31 -41 -39.5 -87t4 -85.5t42 -72t70.5 -49.5q62 -26 133 -6q41 12 68 40q1 1 24 23q10 -8 18.5 -19t18 -25.5t14.5 -21.5q17 -23 46 -65q4 -7 14.5 -21.5
t18.5 -26.5t14 -24q-30 -25 -31 -26q-138 -93 -290 -82q-213 17 -331 169q-61 78 -81.5 169t-3 174t68.5 156.5t129 119.5q127 77 270 67q120 -9 204 -62q1 -1 31 -22z" />
    <glyph glyph-name="D" unicode="D" horiz-adv-x="781" 
d="M279 252q48 -1 91.5 20t68.5 59q52 78 14 162q-22 49 -70.5 77.5t-105.5 26.5q-3 -25 -3 -27q-5 -266 5 -318zM6 2q-5 12 -5 13q-1 369 -1 805q0 1 3 22l23 2q224 1 256 0q198 -5 337 -141q109 -107 119 -254t-83 -267q-96 -124 -261 -166q-59 -15 -122 -16h-244
q-1 0 -22 2z" />
    <glyph glyph-name="E" unicode="E" horiz-adv-x="697" 
d="M645 6q-27 -2 -29 -2q-181 -3 -380.5 -2t-231.5 6q-3 20 -3 21q-1 4 -1 28v738q0 2 1 46q6 4 12.5 6t10.5 2t11.5 -0.5t10.5 -0.5h515h59q2 0 25 -2q3 -18 4 -37.5t0 -45.5t0 -37q1 -87 -2 -121q-35 -3 -37 -3h-151h-144q-2 0 -40 -2q-6 -31 -1 -64q3 -3 7.5 -4.5t7 -2
t9 0t7.5 0.5h235h42q5 -23 5 -24v-163q0 -1 -3 -18q-29 -3 -31 -3h-235h-38q-8 -22 -8 -32t5 -37q17 -3 37.5 -3.5t45.5 0t39 0.5h119h125q5 -15 5 -16q1 -79 0 -215q0 -1 -3 -13z" />
    <glyph glyph-name="F" unicode="F" horiz-adv-x="714" 
d="M281 621q-6 -51 0 -87q5 -3 10.5 -4.5t9 -1.5t10.5 0.5t10 0.5q42 -1 113.5 -1h113.5q31 0 38 -3q4 -25 4.5 -103t-3.5 -107q-29 -3 -30 -3q-43 -1 -123.5 -1h-111.5q-2 0 -41 -1q-3 -36 -3 -37v-114v-109q0 -2 -2 -41q-13 -4 -27.5 -5t-33.5 0t-27 1q-40 -2 -92 0
q-9 0 -27.5 -0.5t-33 0t-28.5 3.5q-3 22 -3 23q-1 19 -1 104q0 502 1 662q0 3 -0.5 11t-0.5 12.5t1.5 11.5t4.5 12q14 3 15 3q310 0 626 -1q1 0 14 -3q2 -10 2.5 -21.5t0 -27t-0.5 -22.5q1 -37 0 -75q0 -7 0.5 -18t0.5 -18.5t-1 -18t-3 -19.5q-38 -2 -40 -2h-299h-43z" />
    <glyph glyph-name="G" unicode="G" horiz-adv-x="929" 
d="M876 511q10 -48 5 -468q0 -1 -3 -34q-23 -4 -108.5 -4.5t-121.5 3.5q-1 1 -3.5 14t-4.5 20q-10 1 -11 1q-51 -22 -102 -32q-84 -16 -174 12q-110 35 -181 105q-105 102 -128.5 234t38.5 259q57 117 192 191q117 63 279 44q95 -12 180 -69q1 -1 15 -13q-8 -18 -34.5 -64
t-54 -90t-37.5 -56q-27 20 -29 21q-66 43 -136 29q-3 -1 -17.5 -3t-21.5 -4q-37 -11 -64.5 -35.5t-41 -55t-18.5 -64.5t4 -64q19 -72 79 -111t133 -28q28 4 43 9q42 13 65 42q-1 4 -3.5 6t-3.5 2h-5.5h-4.5q-6 1 -36 0.5t-37 1.5q-1 17 1.5 33.5t8.5 38.5t7 30q16 79 24 99
q25 4 151 3.5t156 -3.5z" />
    <glyph glyph-name="H" unicode="H" horiz-adv-x="753" 
d="M700 8q-23 -4 -97.5 -5.5t-145.5 1.5q-1 0 -24 3q-3 11 -3.5 23t0 27.5t0.5 22.5v75v72q0 4 -1 70q-23 6 -71 6.5t-79 -4.5q-3 -29 -3 -30v-219v-41q-19 -5 -20 -5h-235q-1 0 -13 3q-3 6 -4.5 12t-0.5 17.5t1 12.5q-1 113 -1 510v244q1 2 2 35l6 6q1 1 4 1q159 0 239 1
q1 0 15 -2q3 -3 5 -7.5t2.5 -7t0 -8.5t-0.5 -7v-220v-41q10 -3 20.5 -4t18.5 -0.5t19.5 0.5h18.5h73q4 32 4 33v115v104q0 2 2 41q10 3 21.5 4t26 0t20.5 0h68h63q2 0 66 -1q4 -5 6 -11.5t2 -11t-0.5 -12t-0.5 -10.5q1 -73 1 -371q0 -305 -1 -379q0 -3 0.5 -10t0.5 -11.5
t-1.5 -10.5t-3.5 -10z" />
    <glyph glyph-name="I" unicode="I" horiz-adv-x="433" 
d="M0 833q13 5 14 5q37 2 193.5 1t176.5 -4q3 -7 -6 -17q-28 -29 -53 -54q-30 -28 -47 -43q-30 -26 -21 -68q0 -3 26 -141q42 -227 52 -282q6 -28 -9 -49q-18 -25 -38.5 -54t-45 -63.5t-38.5 -54.5q-1 0 -10 -9q-18 20 -19 21q-12 17 -35 49.5t-42 59t-37 49.5
q-18 24 -12 56q14 65 38.5 188.5t28.5 143.5q14 69 19 89q8 34 -17 58q-22 21 -93 92q-1 2 -25 27z" />
    <glyph glyph-name="J" unicode="J" horiz-adv-x="498" 
d="M181 837q34 3 139 3.5t129 -2.5q3 -21 3 -22q1 -415 0 -479q-3 -186 -178 -287q-85 -49 -179 -50h-100q-9 7 -5 20q15 49 65 220q33 6 35 7q83 18 88 103v35v101.5t-0.5 103.5t-0.5 99.5v102.5q0 35 4 45z" />
    <glyph glyph-name="K" unicode="K" horiz-adv-x="793" 
d="M748 4h-156.5h-150.5q-2 3 -160 279q-3 -1 -5.5 -2t-3 -3t-1 -3.5t0 -4t0.5 -3.5v-70v-79.5v-69.5q0 -2 -2 -42q-20 -2 -42 -3t-49.5 0t-40.5 0h-133q-5 28 -5 29v124v642q0 2 1 44q16 5 17 5q89 1 239 0l8 -2q3 -3 5 -7t2 -6.5t-0.5 -8.5t-0.5 -7q1 -36 1 -108v-108
q0 -25 4 -34q12 13 21.5 28.5t20 35t15.5 28.5q4 6 54 94l52 91q26 5 151 5t149 -4q3 -3 2 -8.5t-2 -7.5t-4 -7t-4 -6q-23 -41 -145 -253q-5 -10 -77 -135q45 -81 130 -230.5t109 -192.5z" />
    <glyph glyph-name="L" unicode="L" horiz-adv-x="518" 
d="M468 245q4 -26 4 -118t-3 -123q-17 -4 -18 -4h-426q-1 0 -15 2q-4 5 -5.5 11t-1.5 10.5t0.5 12t0.5 10.5q-1 98 -1 474v276q0 1 2 44q11 4 22 4.5t25.5 0t20.5 0.5h68h64q7 -1 21 -0.5t25.5 0t21.5 -2.5q2 -4 3.5 -8.5t1.5 -9.5v-8.5v-9v-8.5v-502v-45q24 -4 25 -4
q23 -1 65.5 -1h57.5q2 0 42 -1z" />
    <glyph glyph-name="M" unicode="M" horiz-adv-x="931" 
d="M877 845q3 -23 3 -24q4 -108 2.5 -447t-5.5 -365l-3 -3q-3 -1 -4 -1q-143 -1 -239 -1q-1 0 -16 2q-3 4 -4.5 10t-2 10.5t0 12t0.5 10.5v189.5v145.5q0 1 -1 38q-5 0 -8.5 -1t-5 -2t-4.5 -5l-3 -4q-17 -21 -38 -46t-43.5 -52.5t-38.5 -45.5q-1 -2 -27 -32
q-10 10 -19.5 21.5t-19 24.5t-16.5 20q-10 12 -28 33.5t-26 30.5q-5 6 -16 20.5t-20.5 25.5t-20.5 21q-1 -8 -2 -64q-1 -5 -1 -60v-60v-59v-60v-60v-61q-21 -3 -43 -3.5t-49 0t-41 0.5q-10 -1 -133 -1q-5 23 -5 25v119v164.5v159.5v165.5v160.5v45q19 6 20 6h249
q3 -3 19 -22t24 -29q36 -43 42 -49q2 -3 5.5 -7t6.5 -7.5t6 -7.5t6 -7.5t6 -7.5t6.5 -7.5t6.5 -7.5q4 -5 12.5 -15.5t15.5 -18.5t16 -15q28 32 30 33q89 107 125 150q15 19 37 18h127h96q1 0 21 -3z" />
    <glyph glyph-name="N" unicode="N" horiz-adv-x="745" 
d="M696 3h-129.5h-127.5q-19 31 -80.5 133t-97.5 161q-2 -12 -3 -64v-56v-60v-55v-17.5t-0.5 -22t-2.5 -18.5q-8 -1 -16.5 -1.5t-17 -0.5h-16.5h-17h-16h-80q-6 0 -82 1q-3 5 -5 11t-2 9.5t0.5 10.5t0.5 10q-1 64 -1 331v422q0 2 1 45q20 4 21 4q86 1 223 0l15 -3
q25 -49 74 -150t76 -151q3 2 5 5t2.5 6t1 5t0 6t-0.5 5v112.5t1 122.5q0 3 -0.5 9.5t-0.5 10.5t1.5 9t4.5 9q24 5 132 5t135 -5q3 -6 3.5 -12t0 -17t-0.5 -13q1 -65 1 -354q0 -322 -1 -395q0 -2 -1 -48z" />
    <glyph glyph-name="O" unicode="O" horiz-adv-x="919" 
d="M386 643l-4 -10q-3 -14 0.5 -22t15.5 -13q27 -11 48.5 8t9.5 48q-22 56 -76 61q-92 8 -158 -52q-48 -44 -49 -105q-2 -77 21 -145q1 -3 3.5 -8.5t3 -8.5l1.5 -9t-1 -10q-39 -6 -43 -7q-18 -3 -20 -21q-2 -14 -1 -24q5 -30 26 -49.5t53 -20.5q35 -2 56 -26q2 -2 4.5 -4
t5.5 -5l4 -4q40 -38 90 -50.5t92 -4t76 30.5q24 16 54 41q22 18 43 19q12 1 31 5q26 6 44 26.5t20 46.5q2 23 -11 34.5t-36 7.5q-1 0 -21 -2q0 1 11 61q2 10 6 29.5t6.5 31.5t4.5 29t3 32q1 43 -21 72q-56 74 -154 96q-1 -40 -2 -42q-5 -37 -10 -51q-11 -31 -42 -48t-64 -11
q-28 5 -38 32q-11 28 18 42zM870 443q1 -60 -14 -117t-43 -105t-68.5 -88.5t-88 -69t-103.5 -44.5t-114 -17q-85 -1 -165 32.5t-140 90.5t-96.5 140t-36.5 176q-1 84 31.5 163.5t89 139.5t138 96.5t173.5 37.5q95 0 178.5 -37t140 -98t88 -139.5t30.5 -160.5z" />
    <glyph glyph-name="P" unicode="P" horiz-adv-x="761" 
d="M442 484q10 56 11 58q7 40 -14 66.5t-64 31.5q-6 -32 -7 -34q-5 -18 -20 -27t-33 -6q-17 3 -17 21q20 -6 21 -6q10 -1 16 5.5t4 16.5q-3 14 -14 23t-26 10q-40 4 -68 -22.5t-25 -66.5l8 -51q0 -1 3 -21l-15 -5q-19 -8 -13 -24q8 -25 30 -28q23 -3 42 -21
q28 -27 66.5 -26.5t64.5 22.5q24 21 49 25q13 2 22 15q8 11 7 25q0 6 -4.5 9t-7 3.5t-9.5 1.5q-1 0 -7 5zM273 170v-82.5v-82.5q-20 -5 -21 -5h-231q-1 0 -18 3q-3 30 -3 31v199v563q0 1 1 45q24 3 25 3q233 0 275 -1q122 -3 223 -55q137 -71 164 -198q43 -204 -118 -334
q-101 -82 -236 -83h-27.5h-24.5z" />
    <glyph glyph-name="Q" unicode="Q" horiz-adv-x="1053" 
d="M712 368q1 27 1 29q3 11 9.5 42t9.5 47q6 40 7 72q2 46 -29 80q-50 54 -115 75q-2 1 -6.5 2.5t-7 2t-6.5 0t-8 -2.5l-2 -14q0 -1 -1.5 -21.5t-3.5 -30.5q-7 -39 -37.5 -62t-69.5 -20q-26 3 -38.5 22t-3.5 44q1 2 2.5 4t3.5 3.5t5.5 5l6.5 6.5q-7 -25 -7 -26
q-3 -15 10 -24q24 -16 49 -2q23 14 19 41q-2 18 -12 33q-29 44 -85 43q-97 -1 -160 -76q-25 -29 -27 -65q-5 -103 22 -173q8 -19 3 -27q-16 -4 -18 -4q-3 -1 -9.5 -1.5t-9.5 -1.5q-25 -4 -27 -29q-2 -34 24 -61t57 -25q29 2 53 -23q12 -13 29 -27q58 -47 132 -46
q82 2 143 54q48 40 99 45q18 2 33 14t23 30t6 36q-1 19 -12 28t-30 6q-1 0 -22 -3zM881 266q38 -32 127 -108q-6 -12 -15.5 -23.5t-21 -25t-17.5 -20.5q-12 -16 -58 -71q-41 -50 -57 -68q-26 19 -72 57t-68 55q-180 -95 -362 -34q-140 47 -224 177q-83 136 -67.5 283
t115.5 252q55 58 123.5 92.5t139 43t142 -6t135.5 -51.5q82 -47 137.5 -128.5t72 -191t-29.5 -232.5z" />
    <glyph glyph-name="R" unicode="R" horiz-adv-x="804" 
d="M205 504q-11 -4 -12 -5q-25 -11 -13 -33q10 -19 24 -20q5 0 10.5 -1.5t9 -2.5t9 -5t7.5 -5.5t8 -6.5t7 -6q53 -41 112 -7q6 4 16 11t17 11.5t17 8.5t20 5q5 0 15 12q21 27 -15 41l-6 6q3 23 4 26q6 42 6 43q3 35 -18 57.5t-59 26.5q-7 -32 -7 -34q-6 -19 -24 -28t-36 -1
q-14 5 -7 21l7 -6q14 -10 25 1t3 26q-10 19 -26 22q-27 6 -53 -4t-41.5 -32.5t-10.5 -50.5q0 -4 11 -70zM284 220q-4 -3 -6 -6.5t-3 -8t-1.5 -7t-0.5 -9v-7.5v-67v-68q0 -2 -1 -41q-15 -5 -16 -5h-239l-14 4q-3 28 -3 29v255v507q0 2 1 41q5 4 10 5.5t8.5 2t10 0t8.5 -0.5
h151t152 1q154 1 269 -125q43 -47 60 -111q38 -147 -59 -274q-1 -2 -35 -41q13 -22 14 -23q27 -39 77.5 -111t71.5 -101q1 -2 35 -52l-19 -6h-115.5t-131.5 -1q-24 0 -37 19q-22 29 -39 50q-68 81 -101 119q-26 29 -47 32z" />
    <glyph glyph-name="S" unicode="S" horiz-adv-x="808" 
d="M0 166q27 26 77 71t66 60q34 -24 36 -25q69 -51 125 -59q37 -5 84 -4q33 1 55 28q13 17 10 33.5t-22 25.5q-17 9 -45 17q-15 4 -53 14t-58 16q-51 16 -75 28q-153 75 -116 242q20 91 113 154q49 33 105 47q127 32 245 7q81 -16 158 -64q1 -1 18 -15q-9 -20 -43.5 -67.5
t-64.5 -81.5q-27 7 -29 8l-27 9t-32.5 10.5t-27.5 7.5q-28 6 -72 4q-17 -1 -37 -12q-29 -18 -7 -48q16 -24 41 -30q79 -18 93 -22q57 -15 80 -24q86 -34 122 -112t11 -165q-21 -71 -68 -119.5t-118 -73.5q-165 -58 -324 -1q-131 47 -205 125q-1 1 -15 16z" />
    <glyph glyph-name="T" unicode="T" horiz-adv-x="691" 
d="M461 2q-142 -3 -268 0q-2 6 -3.5 12.5t-1.5 10.5t0.5 12t0.5 10v502v46q-24 4 -25 4h-38h-43.5h-38.5q-1 0 -37 2q-3 18 -3.5 38t0 45t0.5 37q-1 82 1 120q20 4 21 4h598l17 -2l5 -14v-212l-4 -16q-31 -3 -88.5 -2t-86.5 -2q-4 -7 -5.5 -13t-1 -18.5l0.5 -12.5v-502v-49z
" />
    <glyph glyph-name="U" unicode="U" horiz-adv-x="751" 
d="M438 837q23 3 24 3q62 3 139 1.5t102 -5.5q3 -28 3 -30v-249.5v-248.5q0 -157 -136 -253q-100 -72 -229.5 -68t-226.5 84q-112 93 -114 228v4v9.5v9v9.5v459v45q23 5 24 5q98 1 224 0q1 0 18 -3q3 -5 4.5 -11.5t1.5 -10.5t-0.5 -11.5t-0.5 -10.5q1 -84 1 -443v-16v-16
q-1 -46 46 -68q24 -11 52.5 -5t46.5 26q17 18 17 39q1 31 1 36v447q0 34 3 44z" />
    <glyph glyph-name="V" unicode="V" horiz-adv-x="872" 
d="M246 5q-19 67 -108.5 366t-137.5 461q15 4 31 4.5t36.5 0t29.5 -0.5q12 1 99 0h97q11 -30 20.5 -62t21.5 -76t17 -62q3 -9 59 -204q6 13 11 27.5t9 28t7.5 26t7.5 27t7 25.5q5 15 10 33.5t9 33.5t9.5 34t9.5 33q2 9 38 132l19 4h260l14 -3q-3 -25 -3 -26
q-29 -102 -63 -214q-54 -183 -167 -557q0 -1 -9 -29q-23 -4 -156.5 -5t-177.5 3z" />
    <glyph glyph-name="W" unicode="W" horiz-adv-x="1302" 
d="M740 842q59 -251 88 -376l7 -9q21 66 57 194t55 190q26 5 152.5 5t153.5 -4q3 -2 2 -9t-1.5 -8.5t-3 -8.5t-2.5 -8q-110 -345 -150 -471q-25 -77 -98 -307q-1 -2 -9 -24q-16 -2 -35 -3t-34 -0.5t-36 0.5h-34h-141q-10 26 -10 27q-8 26 -29.5 97t-32.5 109q-1 1 -13 25
q-32 -104 -79 -254q-17 -4 -18 -4h-247q-1 0 -18 3q-48 145 -135 420.5t-128 402.5v13q22 4 23 4q73 2 165 1t117 -6q23 -69 60.5 -199t52.5 -177q7 -1 8 -1t2 3q26 113 86 373l19 5q82 1 188 0q1 0 18 -3z" />
    <glyph glyph-name="X" unicode="X" horiz-adv-x="838" 
d="M0 8q9 22 20.5 44.5t27.5 51.5t23 42q14 27 41 78t31 60q14 26 41.5 78t32.5 61q-18 37 -19 38q-23 44 -85 161t-96 181q-1 1 -17 36q12 6 13 6q34 2 140.5 1t128.5 -5q32 -57 56 -98q6 -11 14 -25.5t14 -25.5t14.5 -26t15.5 -28q15 28 53 97t58 106q23 4 136 4.5
t146 -3.5l-4 -17q-12 -23 -34 -65t-28 -52q-41 -78 -135 -257q-1 -1 -14 -27q7 -14 17.5 -33.5t18.5 -35t17.5 -34t18.5 -34.5q34 -65 74 -141q59 -110 73 -140q-22 -3 -46 -3.5t-53 0t-43 0.5h-136q-78 133 -118 200q-15 -22 -16 -24q-15 -27 -43.5 -80t-32.5 -60l-20 -36
h-272z" />
    <glyph glyph-name="Y" unicode="Y" horiz-adv-x="803" 
d="M0 823q26 4 135 4.5t139 -3.5q22 -44 58.5 -129t48.5 -112q9 7 16 24q45 104 79 182q1 2 16 35q28 4 131.5 3t129.5 -5q3 -3 1.5 -9t-2.5 -8.5t-3.5 -8t-3.5 -7.5q-13 -30 -28 -65.5t-32 -74.5t-28 -66q-12 -28 -55 -129.5t-66 -155.5q-11 -26 -11 -55v-195v-41
q-22 -5 -24 -5q-112 -1 -235 -1q-1 0 -22 3q-2 4 -3.5 8t-2 8.5t-0.5 8t0.5 8.5t0.5 7q-1 137 0 196q0 41 -16 77q-48 104 -205 454q-17 38 -18 52z" />
    <glyph glyph-name="Z" unicode="Z" horiz-adv-x="782" 
d="M666 246v-120v-116q-4 -3 -9 -5t-8 -2h-9.5h-8.5h-247h-343q-31 0 -41 4q4 13 10.5 25.5t15 28t11.5 22.5q5 8 40 74q35 67 37 70q4 9 17.5 34.5t21.5 39.5q4 8 9.5 18.5t10 18.5t10 18.5t9.5 18.5q1 1 39 74q5 8 12.5 22t13.5 26t12 22q2 6 37 73q-2 4 -5 6.5t-5 3
t-6.5 0t-5.5 -0.5h-90.5t-80.5 1q-2 0 -42 1q-2 19 -2 39v45v37v117q23 5 25 5h24h574q2 0 44 -1q0 -6 -1 -10.5t-2.5 -9t-3.5 -8t-5 -8t-4 -7.5q-35 -67 -75 -143t-89 -168.5t-75 -142.5q-17 -32 -40 -78q-1 -1 -7 -20q9 -3 18.5 -3.5t22 -0.5h16.5h60h56h59z" />
    <glyph glyph-name="a" unicode="a" horiz-adv-x="922" 
d="M357 639q42 -49 45 -52q19 -22 13 -51q-12 -60 -34 -192q-4 -24 1 -34q30 -55 59 -92q9 12 23 35t21 33q19 28 13 64q-4 26 -12.5 81t-13.5 84q-3 16 -4 26t-1.5 17t3 13t5.5 9t10 11.5t14 15.5l5.5 5.5t6.5 7t4 7.5t3 11q-37 2 -161 1zM288 844q25 3 144.5 4t158.5 -3
q12 -30 12 -31q26 -75 131 -380q101 -293 133 -388q10 -28 10 -37q-22 -5 -115 -6.5t-149 2.5q-10 15 -19 48t-17 47q-23 3 -127.5 4t-146.5 -3q-9 -14 -17 -47t-16 -47q-23 -3 -128.5 -3.5t-134.5 2.5q-2 3 -3 6t0 6.5t1.5 6t2 6t2.5 5.5q91 267 106 313q64 184 161 467
q1 1 11 28z" />
    <glyph glyph-name="b" unicode="b" horiz-adv-x="786" 
d="M256 534q91 0 122 2q13 1 27 7q26 13 26 42q-1 28 -25 38q-17 7 -34 8q-26 2 -80 3q-2 0 -37 -2q-4 -50 1 -98zM256 206q25 -6 72.5 -5t66.5 6q16 5 25.5 16.5t10.5 26.5t-8 27.5t-24 17.5q-19 5 -35 6q-28 1 -96 1l-13 -4q-3 -69 1 -92zM6 844q32 2 33 2h355
q95 0 178 -50q88 -51 109 -150q20 -97 -52 -181q-1 -1 -30 -29q22 -16 23 -17q40 -29 68 -72q37 -59 34 -121t-44 -113q-72 -92 -190 -105q-40 -5 -107 -5q-100 -1 -335 0q-3 0 -10.5 -0.5t-11.5 -0.5t-10 1.5t-10 3.5q-4 24 -4.5 415t4.5 422z" />
    <glyph glyph-name="c" unicode="c" horiz-adv-x="791" 
d="M712 758q-9 -24 -59 -108.5t-66 -103.5q-22 16 -25 18q-57 39 -124 35t-117 -45q-12 -9 -20 -19q-25 -33 -36 -69.5t-6.5 -70t19.5 -64t41 -54t59 -36.5q62 -26 132 -6q42 12 69 40q1 1 24 23q10 -8 18.5 -19t17.5 -26t14 -21q17 -23 46 -66q5 -6 15.5 -20.5t18 -26.5
t13.5 -24q-29 -25 -31 -26q-138 -93 -289 -82q-214 17 -332 168q-60 79 -81 169.5t-3 173.5t69 156.5t128 120.5q128 77 270 66q121 -9 204 -61q2 -1 31 -22z" />
    <glyph glyph-name="d" unicode="d" horiz-adv-x="795" 
d="M279 252q48 -1 91.5 20t68.5 59q52 78 14 162q-22 49 -70.5 77.5t-105.5 26.5q-3 -25 -3 -27q-5 -266 5 -318zM6 2q-5 12 -5 13q-1 369 -1 805q0 1 3 22l23 2q224 1 256 0q198 -5 337 -141q109 -107 119 -254t-83 -267q-96 -124 -261 -166q-59 -15 -122 -16h-244
q-1 0 -22 2z" />
    <glyph glyph-name="e" unicode="e" horiz-adv-x="697" 
d="M645 6q-27 -2 -29 -2q-181 -3 -380.5 -2t-231.5 6q-3 20 -3 21q-1 4 -1 28v738q0 2 1 46q6 4 12.5 6t10.5 2t11.5 -0.5t10.5 -0.5h515h59q2 0 25 -2q3 -18 4 -37.5t0 -45.5t0 -37q1 -87 -2 -121q-35 -3 -37 -3h-151h-144q-2 0 -40 -2q-6 -31 -1 -64q3 -3 7.5 -4.5t7 -2
t9 0t7.5 0.5h235h42q5 -23 5 -24v-163q0 -1 -3 -18q-29 -3 -31 -3h-235h-38q-8 -22 -8 -32t5 -37q17 -3 37.5 -3.5t45.5 0t39 0.5h119h125q5 -15 5 -16q1 -79 0 -215q0 -1 -3 -13z" />
    <glyph glyph-name="f" unicode="f" horiz-adv-x="714" 
d="M281 621q-6 -51 0 -87q5 -3 10.5 -4.5t9 -1.5t10.5 0.5t10 0.5q42 -1 113.5 -1h113.5q31 0 38 -3q4 -25 4.5 -103t-3.5 -107q-29 -3 -30 -3q-43 -1 -123.5 -1h-111.5q-2 0 -41 -1q-3 -36 -3 -37v-114v-109q0 -2 -2 -41q-13 -4 -27.5 -5t-33.5 0t-27 1q-40 -2 -92 0
q-9 0 -27.5 -0.5t-33 0t-28.5 3.5q-3 22 -3 23q-1 19 -1 104q0 502 1 662q0 3 -0.5 11t-0.5 12.5t1.5 11.5t4.5 12q14 3 15 3q310 0 626 -1q1 0 14 -3q2 -10 2.5 -21.5t0 -27t-0.5 -22.5q1 -37 0 -75q0 -7 0.5 -18t0.5 -18.5t-1 -18t-3 -19.5q-38 -2 -40 -2h-299h-43z" />
    <glyph glyph-name="g" unicode="g" horiz-adv-x="929" 
d="M876 511q10 -48 5 -468q0 -1 -3 -34q-23 -4 -108.5 -4.5t-121.5 3.5q-1 1 -3.5 14t-4.5 20q-10 1 -11 1q-51 -22 -102 -32q-84 -16 -174 12q-110 35 -181 105q-105 102 -128.5 234t38.5 259q57 117 192 191q117 63 279 44q95 -12 180 -69q1 -1 15 -13q-8 -18 -34.5 -64
t-54 -90t-37.5 -56q-27 20 -29 21q-66 43 -136 29q-3 -1 -17.5 -3t-21.5 -4q-37 -11 -64.5 -35.5t-41 -55t-18.5 -64.5t4 -64q19 -72 79 -111t133 -28q28 4 43 9q42 13 65 42q-1 4 -3.5 6t-3.5 2h-5.5h-4.5q-6 1 -36 0.5t-37 1.5q-1 17 1.5 33.5t8.5 38.5t7 30q16 79 24 99
q25 4 151 3.5t156 -3.5z" />
    <glyph glyph-name="h" unicode="h" horiz-adv-x="753" 
d="M700 8q-23 -4 -97.5 -5.5t-145.5 1.5q-1 0 -24 3q-3 11 -3.5 23t0 27.5t0.5 22.5v75v72q0 4 -1 70q-23 6 -71 6.5t-79 -4.5q-3 -29 -3 -30v-219v-41q-19 -5 -20 -5h-235q-1 0 -13 3q-3 6 -4.5 12t-0.5 17.5t1 12.5q-1 113 -1 510v244q1 2 2 35l6 6q1 1 4 1q159 0 239 1
q1 0 15 -2q3 -3 5 -7.5t2.5 -7t0 -8.5t-0.5 -7v-220v-41q10 -3 20.5 -4t18.5 -0.5t19.5 0.5h18.5h73q4 32 4 33v115v104q0 2 2 41q10 3 21.5 4t26 0t20.5 0h68h63q2 0 66 -1q4 -5 6 -11.5t2 -11t-0.5 -12t-0.5 -10.5q1 -73 1 -371q0 -305 -1 -379q0 -3 0.5 -10t0.5 -11.5
t-1.5 -10.5t-3.5 -10z" />
    <glyph glyph-name="i" unicode="i" horiz-adv-x="433" 
d="M0 833q13 5 14 5q37 2 193.5 1t176.5 -4q3 -7 -6 -17q-28 -29 -53 -54q-30 -28 -47 -43q-30 -26 -21 -68q0 -3 26 -141q42 -227 52 -282q6 -28 -9 -49q-18 -25 -38.5 -54t-45 -63.5t-38.5 -54.5q-1 0 -10 -9q-18 20 -19 21q-12 17 -35 49.5t-42 59t-37 49.5
q-18 24 -12 56q14 65 38.5 188.5t28.5 143.5q14 69 19 89q8 34 -17 58q-22 21 -93 92q-1 2 -25 27z" />
    <glyph glyph-name="j" unicode="j" horiz-adv-x="498" 
d="M181 837q34 3 139 3.5t129 -2.5q3 -21 3 -22q1 -415 0 -479q-3 -186 -178 -287q-85 -49 -179 -50h-100q-9 7 -5 20q15 49 65 220q33 6 35 7q83 18 88 103v35v101.5t-0.5 103.5t-0.5 99.5v102.5q0 35 4 45z" />
    <glyph glyph-name="k" unicode="k" horiz-adv-x="793" 
d="M748 4h-156.5h-150.5q-2 3 -160 279q-3 -1 -5.5 -2t-3 -3t-1 -3.5t0 -4t0.5 -3.5v-70v-79.5v-69.5q0 -2 -2 -42q-20 -2 -42 -3t-49.5 0t-40.5 0h-133q-5 28 -5 29v124v642q0 2 1 44q16 5 17 5q89 1 239 0l8 -2q3 -3 5 -7t2 -6.5t-0.5 -8.5t-0.5 -7q1 -36 1 -108v-108
q0 -25 4 -34q12 13 21.5 28.5t20 35t15.5 28.5q4 6 54 94l52 91q26 5 151 5t149 -4q3 -3 2 -8.5t-2 -7.5t-4 -7t-4 -6q-23 -41 -145 -253q-5 -10 -77 -135q45 -81 130 -230.5t109 -192.5z" />
    <glyph glyph-name="l" unicode="l" horiz-adv-x="518" 
d="M468 245q4 -26 4 -118t-3 -123q-17 -4 -18 -4h-426q-1 0 -15 2q-4 5 -5.5 11t-1.5 10.5t0.5 12t0.5 10.5q-1 98 -1 474v276q0 1 2 44q11 4 22 4.5t25.5 0t20.5 0.5h68h64q7 -1 21 -0.5t25.5 0t21.5 -2.5q2 -4 3.5 -8.5t1.5 -9.5v-8.5v-9v-8.5v-502v-45q24 -4 25 -4
q23 -1 65.5 -1h57.5q2 0 42 -1z" />
    <glyph glyph-name="m" unicode="m" horiz-adv-x="931" 
d="M877 845q3 -23 3 -24q4 -108 2.5 -447t-5.5 -365l-3 -3q-3 -1 -4 -1q-143 -1 -239 -1q-1 0 -16 2q-3 4 -4.5 10t-2 10.5t0 12t0.5 10.5v189.5v145.5q0 1 -1 38q-5 0 -8.5 -1t-5 -2t-4.5 -5l-3 -4q-17 -21 -38 -46t-43.5 -52.5t-38.5 -45.5q-1 -2 -27 -32
q-10 10 -19.5 21.5t-19 24.5t-16.5 20q-10 12 -28 33.5t-26 30.5q-5 6 -16 20.5t-20.5 25.5t-20.5 21q-1 -8 -2 -64q-1 -5 -1 -60v-60v-59v-60v-60v-61q-21 -3 -43 -3.5t-49 0t-41 0.5q-10 -1 -133 -1q-5 23 -5 25v119v164.5v159.5v165.5v160.5v45q19 6 20 6h249
q3 -3 19 -22t24 -29q36 -43 42 -49q2 -3 5.5 -7t6.5 -7.5t6 -7.5t6 -7.5t6 -7.5t6.5 -7.5t6.5 -7.5q4 -5 12.5 -15.5t15.5 -18.5t16 -15q28 32 30 33q89 107 125 150q15 19 37 18h127h96q1 0 21 -3z" />
    <glyph glyph-name="n" unicode="n" horiz-adv-x="745" 
d="M696 3h-129.5h-127.5q-19 31 -80.5 133t-97.5 161q-2 -12 -3 -64v-56v-60v-55v-17.5t-0.5 -22t-2.5 -18.5q-8 -1 -16.5 -1.5t-17 -0.5h-16.5h-17h-16h-80q-6 0 -82 1q-3 5 -5 11t-2 9.5t0.5 10.5t0.5 10q-1 64 -1 331v422q0 2 1 45q20 4 21 4q86 1 223 0l15 -3
q25 -49 74 -150t76 -151q3 2 5 5t2.5 6t1 5t0 6t-0.5 5v112.5t1 122.5q0 3 -0.5 9.5t-0.5 10.5t1.5 9t4.5 9q24 5 132 5t135 -5q3 -6 3.5 -12t0 -17t-0.5 -13q1 -65 1 -354q0 -322 -1 -395q0 -2 -1 -48z" />
    <glyph glyph-name="o" unicode="o" horiz-adv-x="919" 
d="M386 643l-4 -10q-3 -14 0.5 -22t15.5 -13q27 -11 48.5 8t9.5 48q-22 56 -76 61q-92 8 -158 -52q-48 -44 -49 -105q-2 -77 21 -145q1 -3 3.5 -8.5t3 -8.5l1.5 -9t-1 -10q-39 -6 -43 -7q-18 -3 -20 -21q-2 -14 -1 -24q5 -30 26 -49.5t53 -20.5q35 -2 56 -26q2 -2 4.5 -4
t5.5 -5l4 -4q40 -38 90 -50.5t92 -4t76 30.5q24 16 54 41q22 18 43 19q12 1 31 5q26 6 44 26.5t20 46.5q2 23 -11 34.5t-36 7.5q-1 0 -21 -2q0 1 11 61q2 10 6 29.5t6.5 31.5t4.5 29t3 32q1 43 -21 72q-56 74 -154 96q-1 -40 -2 -42q-5 -37 -10 -51q-11 -31 -42 -48t-64 -11
q-28 5 -38 32q-11 28 18 42zM870 443q1 -60 -14 -117t-43 -105t-68.5 -88.5t-88 -69t-103.5 -44.5t-114 -17q-85 -1 -165 32.5t-140 90.5t-96.5 140t-36.5 176q-1 84 31.5 163.5t89 139.5t138 96.5t173.5 37.5q95 0 178.5 -37t140 -98t88 -139.5t30.5 -160.5z" />
    <glyph glyph-name="p" unicode="p" horiz-adv-x="761" 
d="M442 484q10 56 11 58q7 40 -14 66.5t-64 31.5q-6 -32 -7 -34q-5 -18 -20 -27t-33 -6q-17 3 -17 21q20 -6 21 -6q10 -1 16 5.5t4 16.5q-3 14 -14 23t-26 10q-40 4 -68 -22.5t-25 -66.5l8 -51q0 -1 3 -21l-15 -5q-19 -8 -13 -24q8 -25 30 -28q23 -3 42 -21
q28 -27 66.5 -26.5t64.5 22.5q24 21 49 25q13 2 22 15q8 11 7 25q0 6 -4.5 9t-7 3.5t-9.5 1.5q-1 0 -7 5zM273 170v-82.5v-82.5q-20 -5 -21 -5h-231q-1 0 -18 3q-3 30 -3 31v199v563q0 1 1 45q24 3 25 3q233 0 275 -1q122 -3 223 -55q137 -71 164 -198q43 -204 -118 -334
q-101 -82 -236 -83h-27.5h-24.5z" />
    <glyph glyph-name="q" unicode="q" horiz-adv-x="1053" 
d="M712 368q1 27 1 29q3 11 9.5 42t9.5 47q6 40 7 72q2 46 -29 80q-50 54 -115 75q-2 1 -6.5 2.5t-7 2t-6.5 0t-8 -2.5l-2 -14q0 -1 -1.5 -21.5t-3.5 -30.5q-7 -39 -37.5 -62t-69.5 -20q-26 3 -38.5 22t-3.5 44q1 2 2.5 4t3.5 3.5t5.5 5l6.5 6.5q-7 -25 -7 -26
q-3 -15 10 -24q24 -16 49 -2q23 14 19 41q-2 18 -12 33q-29 44 -85 43q-97 -1 -160 -76q-25 -29 -27 -65q-5 -103 22 -173q8 -19 3 -27q-16 -4 -18 -4q-3 -1 -9.5 -1.5t-9.5 -1.5q-25 -4 -27 -29q-2 -34 24 -61t57 -25q29 2 53 -23q12 -13 29 -27q58 -47 132 -46
q82 2 143 54q48 40 99 45q18 2 33 14t23 30t6 36q-1 19 -12 28t-30 6q-1 0 -22 -3zM881 266q38 -32 127 -108q-6 -12 -15.5 -23.5t-21 -25t-17.5 -20.5q-12 -16 -58 -71q-41 -50 -57 -68q-26 19 -72 57t-68 55q-180 -95 -362 -34q-140 47 -224 177q-83 136 -67.5 283
t115.5 252q55 58 123.5 92.5t139 43t142 -6t135.5 -51.5q82 -47 137.5 -128.5t72 -191t-29.5 -232.5z" />
    <glyph glyph-name="r" unicode="r" horiz-adv-x="819" 
d="M205 482q-11 -5 -12 -5q-25 -11 -13 -33q10 -19 24 -20q5 0 10.5 -1.5t9 -3t9 -5t7.5 -5t8 -6.5t7 -6q53 -41 112 -7q6 4 16 11t17 11.5t17 8.5t20 4q5 1 15 13q21 27 -15 40l-6 6q3 23 4 27q6 41 6 43q3 34 -18 56.5t-59 27.5q-7 -32 -7 -34q-6 -20 -24 -28.5t-36 -1.5
q-14 6 -7 22q7 -6 7 -7q14 -10 25 1.5t3 25.5q-10 19 -26 23q-27 5 -53 -4.5t-41.5 -32t-10.5 -50.5q0 -4 11 -70zM284 198q-4 -3 -6 -6.5t-3 -8.5t-1.5 -7t-0.5 -8.5v-7.5v-68v-68q0 -2 -1 -40q-15 -5 -16 -5q-99 -1 -239 0l-14 3q0 3 -1 9t-1.5 11t-0.5 10v255v506
q0 2 1 42q5 3 10 5t8.5 2h10h8.5h151h152q154 2 269 -125q43 -47 60 -111q38 -146 -59 -274q-1 -1 -35 -40q13 -23 14 -24q27 -39 77.5 -111t71.5 -101q1 -2 35 -52l-19 -6h-115.5h-131.5q-24 0 -37 18q-22 29 -39 51q-68 81 -101 118q-26 30 -47 33z" />
    <glyph glyph-name="s" unicode="s" horiz-adv-x="808" 
d="M0 180q20 20 44.5 42.5t52.5 47t46 41.5q34 -24 36 -25q69 -51 125 -59q37 -5 84 -4q33 1 55 28q13 17 10 33.5t-22 25.5q-17 9 -45 17q-15 4 -35.5 9.5t-40.5 11t-35 9.5q-51 16 -75 28q-153 75 -116 242q20 91 113 154q49 33 105 47q127 32 245 7q81 -16 158 -64
q1 -1 18 -15q-9 -20 -43.5 -67.5t-64.5 -81.5q-27 7 -29 8l-27 9t-32.5 10.5t-27.5 7.5q-28 6 -72 4q-17 -1 -37 -12q-29 -18 -7 -48q16 -24 41 -30q79 -18 93 -22q57 -15 80 -24q86 -34 122 -112t11 -165q-41 -142 -186 -193q-165 -58 -324 -1q-131 47 -205 125
q-1 1 -15 16z" />
    <glyph glyph-name="t" unicode="t" horiz-adv-x="691" 
d="M461 2q-142 -3 -268 0q-2 6 -3.5 12.5t-1.5 10.5t0.5 12t0.5 10v502v46q-24 4 -25 4h-38h-43.5h-38.5q-1 0 -37 2q-3 18 -3.5 38t0 45t0.5 37q-1 82 1 120q20 4 21 4h598l17 -2l5 -14v-212l-4 -16q-31 -3 -88.5 -2t-86.5 -2q-4 -7 -5.5 -13t-1 -18.5l0.5 -12.5v-502v-49z
" />
    <glyph glyph-name="u" unicode="u" horiz-adv-x="751" 
d="M438 837q23 3 24 3q62 3 139 1.5t102 -5.5q3 -28 3 -30v-249.5v-248.5q0 -157 -136 -253q-100 -72 -229.5 -68t-226.5 84q-112 93 -114 228v4v4v4v4.5v3.5v4v4v4v459v45q23 5 24 5q98 1 224 0q1 0 18 -3q3 -5 4.5 -11.5t1.5 -10.5t-0.5 -11.5t-0.5 -10.5q1 -84 1 -443
v-16v-16q-1 -46 46 -68q24 -11 52.5 -5t46.5 26q17 18 17 39q1 31 1 36v446q0 35 3 45z" />
    <glyph glyph-name="v" unicode="v" horiz-adv-x="872" 
d="M246 -14q-19 66 -108.5 365.5t-137.5 460.5q15 4 31 5t36.5 0t29.5 0h99h97q11 -31 20.5 -63t21.5 -76t17 -61q3 -9 59 -205q9 21 16.5 44t14.5 50t11 41q8 25 21 73t17 61q2 9 38 131l19 5h260l14 -4q-3 -24 -3 -25q-29 -102 -63 -214q-54 -183 -167 -558q0 -1 -9 -28
q-23 -5 -156.5 -5.5t-177.5 3.5z" />
    <glyph glyph-name="w" unicode="w" horiz-adv-x="1302" 
d="M740 842q59 -251 88 -376l7 -9q21 66 57 194t55 190q26 5 152.5 5t153.5 -4q3 -2 2 -9t-1.5 -8.5t-3 -8.5t-2.5 -8q-110 -345 -150 -471q-25 -77 -98 -307q-1 -2 -9 -24q-16 -2 -35 -3t-34 -0.5t-36 0.5h-34h-141q-10 26 -10 27q-8 26 -29.5 97t-32.5 109q-1 1 -13 25
q-32 -104 -79 -254q-17 -4 -18 -4h-247q-1 0 -18 3q-48 145 -135 420.5t-128 402.5v13q22 4 23 4q73 2 165 1t117 -6q23 -69 60.5 -199t52.5 -177q7 -1 8 -1t2 3q26 113 86 373l19 5q82 1 188 0q1 0 18 -3z" />
    <glyph glyph-name="x" unicode="x" horiz-adv-x="838" 
d="M0 8q9 22 20.5 44.5t27.5 51.5t23 42q14 27 41 78t31 60q14 26 41.5 78t32.5 61q-18 37 -19 38q-23 44 -85 161t-96 181q-1 1 -17 36q12 6 13 6q34 2 140.5 1t128.5 -5q32 -57 56 -98q6 -11 14 -25.5t14 -25.5t14.5 -26t15.5 -28q15 28 53 97t58 106q23 4 136 4.5
t146 -3.5l-4 -17q-12 -23 -34 -65t-28 -52q-41 -78 -135 -257q-1 -1 -14 -27q7 -14 17.5 -33.5t18.5 -35t17.5 -34t18.5 -34.5q34 -65 74 -141q59 -110 73 -140q-22 -3 -46 -3.5t-53 0t-43 0.5h-136q-78 133 -118 200q-15 -22 -16 -24q-15 -27 -43.5 -80t-32.5 -60l-20 -36
h-272z" />
    <glyph glyph-name="y" unicode="y" horiz-adv-x="803" 
d="M0 821q26 4 135 5t139 -3q22 -44 58.5 -129t48.5 -112q9 7 16 23q45 105 79 183q1 2 16 34q28 4 131.5 3.5t129.5 -4.5q3 -3 1.5 -9t-2.5 -8.5t-3.5 -8t-3.5 -8.5q-13 -29 -28 -65t-32 -74.5t-28 -65.5q-12 -29 -55 -130t-66 -156q-11 -26 -11 -54v-195v-42
q-22 -5 -24 -5h-235q-1 0 -22 3q-3 5 -4.5 10.5t-1.5 9.5t0.5 11t0.5 9q-1 136 0 196q0 40 -16 77q-48 104 -205 454q-17 38 -18 51z" />
    <glyph glyph-name="z" unicode="z" horiz-adv-x="782" 
d="M666 246v-120v-116q-4 -3 -9 -5t-8 -2h-9.5h-8.5h-247h-343q-31 0 -41 4q4 13 10.5 25.5t15 28t11.5 22.5q5 8 40 74q35 67 37 70q4 9 17.5 34.5t21.5 39.5q4 8 9.5 18.5t10 18.5t10 18.5t9.5 18.5q1 1 39 74q5 8 12.5 22t13.5 26t12 22q2 6 37 73q-2 4 -5 6.5t-5 3
t-6.5 0t-5.5 -0.5h-90.5t-80.5 1q-2 0 -42 1q-2 19 -2 39v45v37v117q23 5 25 5h24h574q2 0 44 -1q0 -6 -1 -10.5t-2.5 -9t-3.5 -8t-5 -8t-4 -7.5q-35 -67 -75 -143t-89 -168.5t-75 -142.5q-17 -32 -40 -78q-1 -1 -7 -20q9 -3 18.5 -3.5t22 -0.5h16.5h60h56h59z" />
    <glyph glyph-name="nonbreakingspace" unicode="&#xa0;" 
 />
    <glyph glyph-name="agrave" unicode="&#xe0;" horiz-adv-x="920" 
d="M247 1126q60 79 81 106l11 15q16 -10 83.5 -61t133 -103t75.5 -64q-18 -24 -94 -120q-29 16 -148 109.5t-142 117.5zM361 629q11 -15 12 -15q5 -7 15.5 -18.5t15.5 -17.5q14 -16 9 -37q-1 -5 -14 -82q-1 -9 -9 -53.5t-12 -67.5q-4 -25 3 -35q6 -9 17 -27.5t20.5 -33
t19.5 -27.5q12 14 28.5 41t20.5 33q17 24 11 52q-5 24 -11 63q-2 10 -9 55.5t-11 70.5q-7 38 19 61q7 7 24 26q0 1 7 13q-28 5 -80.5 5t-75.5 -6zM286 839q25 5 151.5 5t151.5 -4q6 -11 49 -133t93 -266.5t93.5 -272t49.5 -148.5l1 -14q-24 -4 -130 -4.5t-135 3.5
q-9 15 -18 47t-15 44q-23 4 -134 4.5t-144 -3.5l-28 -91q-17 -4 -18 -4h-235q-1 0 -11 2q-3 4 -3 8.5t0.5 7t2.5 8t3 7.5q32 95 149 437q89 259 116 339q1 1 11 28z" />
    <glyph glyph-name="acircumflex" unicode="&#xe2;" horiz-adv-x="919" 
d="M670 1015q-41 -60 -89 -113q-28 18 -76 55.5t-65 50.5q-15 -10 -40.5 -30t-30.5 -23q-4 -3 -70 -52q-18 15 -48.5 53t-45.5 64v4q1 3 3 4q102 80 122 95q7 5 101 76q23 -11 120.5 -86.5t118.5 -97.5zM436 216q21 29 59 93q5 9 2 27q-3 19 -14.5 92t-18.5 113q-4 25 13 43
q23 26 27 30q0 1 3.5 4.5t4 4.5t2 5.5t-0.5 8.5q-34 1 -38 1h-35h-40q-34 -1 -41 -3q9 -15 10 -15q23 -28 31 -36q18 -18 12 -44q-2 -8 -2 -12q-32 -180 -34 -192q-3 -18 3 -27q7 -12 57 -93zM576 99q-25 4 -135 4.5t-143 -2.5q-7 -13 -11.5 -30.5t-9.5 -35t-12 -29.5
q-27 -5 -134 -4.5t-131 5.5q5 21 5 22q95 281 156 460q33 97 110 324q1 1 12 31q12 2 25.5 3t24 1t25 -0.5t24.5 -0.5h104h96q6 -4 10 -9.5t5.5 -9.5t3.5 -11.5t3 -9.5q29 -86 82 -243t70 -206q16 -46 34.5 -100.5t39.5 -115.5t34 -101q1 -1 10 -32q-16 -7 -17 -7
q-78 0 -239 1l-9 2q-10 15 -18.5 48t-14.5 46z" />
    <glyph glyph-name="adieresis" unicode="&#xe4;" horiz-adv-x="922" 
d="M231 1110q38 4 85.5 3.5t68.5 -5.5q4 -25 4 -75t-4 -75q-21 -5 -66.5 -6t-85.5 3q-4 11 -5 23.5t0 30t1 24.5q-2 59 2 77zM640 1108q5 -21 5.5 -69.5t-4.5 -81.5q-6 -3 -14 -4t-19.5 -0.5t-15.5 0.5q-23 -1 -52 0q-4 0 -15.5 -0.5t-19.5 0t-15 3.5q-5 22 -5.5 70.5
t3.5 80.5q20 6 73 6.5t79 -5.5zM354 637q17 -23 47 -55q16 -17 11 -40q-3 -13 -4 -19q-32 -183 -33 -188q-3 -17 6 -31q7 -12 21.5 -35.5t22.5 -35.5l15 -16q46 76 51 85q9 15 6 37q-6 33 -16.5 100t-16.5 101q-4 26 12 44q19 19 30 32l3 3.5t3 4t2 4.5t-1 6l-10 2
q-31 1 -149 1zM280 841q26 5 152 5.5t155 -3.5q7 -9 7 -10q128 -377 277 -814l1 -13l-19 -3q-44 -2 -133.5 -1t-111.5 4q-9 15 -18 47.5t-15 46.5q-13 2 -28 2.5t-34 0t-29 -0.5h-95q-8 0 -93 -1q-28 -92 -28 -94q-18 -4 -19 -4h-231q-1 0 -15 3l-2 4q-1 3 -1 4
q90 265 280 827z" />
    <glyph glyph-name="egrave" unicode="&#xe8;" horiz-adv-x="700" 
d="M109 1143q37 50 80 106l11 15q25 -15 150.5 -112.5t141.5 -115.5q-68 -86 -94 -121q-28 17 -147.5 110.5t-141.5 117.5zM8 840q23 4 288.5 5.5t333.5 -1.5q1 0 19 -3l4 -13v-212l-4 -13q-18 -3 -38.5 -3.5t-45.5 0.5t-39 0h-59.5h-59.5h-122q-7 -22 -7.5 -31t3.5 -37
q3 -3 8 -4.5t8 -1.5h9.5h8.5h120.5h106.5q2 0 43 -1q5 -23 6 -95t-4 -106q-4 -3 -9 -4.5t-9 -1.5h-10.5h-9.5h-119.5h-107.5q-2 0 -42 -2q-2 -30 -2 -32t1 -31q5 -3 10.5 -5t9 -2t10.5 0.5t10 0.5q47 -1 143 -1h144q3 0 8.5 0.5t9 0.5t8 -0.5t9 -1.5t7.5 -3q5 -23 5 -114.5
t-4 -121.5q-8 -4 -42 -4h-411h-147q-2 0 -39 1q-3 5 -4.5 9.5t-2 9.5t-0.5 8.5t0.5 9t0.5 8.5q-1 54 -1 303q0 355 1 447q0 3 -0.5 10.5t-0.5 11.5t1.5 10t3.5 10z" />
    <glyph glyph-name="eacute" unicode="&#xe9;" horiz-adv-x="699" 
d="M132 1021q82 64 288 224q17 -14 48 -53t49 -69q-16 -19 -138 -114t-151 -111q-35 43 -96 123zM3 837q27 5 320.5 5.5t321.5 -3.5q5 -20 6.5 -102t-3.5 -132q-3 -4 -8.5 -5.5t-9 -1.5h-10h-9.5h-163h-124q-2 0 -45 -1q-4 -10 -4.5 -21.5t0 -24.5t0.5 -20q5 -3 10.5 -5
t8 -2h10h8.5h227h44q5 -11 6.5 -22t0.5 -26t0 -20v-68q-1 -59 -2 -68q-17 -3 -34.5 -4t-39 0t-32.5 0h-49.5h-49.5q-98 -1 -105 -1q-6 -25 -2 -64q5 -4 10.5 -5.5t9 -1.5t10.5 0.5t9 0.5q56 -1 158.5 -1h129.5q1 0 42 -1q5 -22 6 -110t-3 -129q-24 -4 -26 -4h-159h-411
q-2 0 -42 1q-3 4 -4.5 8.5t-2 9t-0.5 7.5v8v8v299v451v45z" />
    <glyph glyph-name="ecircumflex" unicode="&#xea;" horiz-adv-x="701" 
d="M562 1018q-12 -18 -25 -35.5t-35.5 -44.5t-28.5 -34q-9 5 -19 11.5t-17.5 12t-18 13.5t-16.5 13q-5 4 -70 54q-13 -5 -24.5 -13.5t-25.5 -20t-21 -17.5q-5 -3 -69 -52q-19 14 -47.5 49t-49.5 70q15 15 34.5 30t42.5 32.5t37 28.5q7 6 112 86q20 -11 121 -87.5t120 -95.5z
M652 610q-6 -4 -12.5 -5.5t-10.5 -2t-12 0t-11 0.5h-150h-133q-2 0 -44 -2q-7 -33 -1 -64q3 -4 7.5 -5.5t7 -2t9 -0.5h7.5h231h45q5 -15 5 -16q1 -73 0 -171q0 -1 -3 -17q-16 -2 -33 -2.5t-38.5 0t-32.5 0.5q-13 -1 -50 -1h-49q-96 0 -105 -1q-7 -34 -1 -64q5 -3 10.5 -5
t9 -2t10.5 0.5t10 0.5h159h128q2 0 44 -1q3 -13 4 -26.5t0.5 -30.5t-0.5 -25q1 -30 0 -79q0 -9 0.5 -25.5t0 -29t-2.5 -24.5q-5 -3 -11 -5t-10.5 -2t-12 0.5t-10.5 0.5q-49 -1 -283 -1q-226 0 -275 1q-2 0 -40 1q-5 20 -5 21q-3 61 -1.5 428t5.5 390q6 4 12 5t17.5 0.5
t12.5 -0.5h419h144q1 0 37 -2q2 -13 3 -26t0.5 -30t-0.5 -24v-80q0 -73 -1 -77z" />
    <glyph glyph-name="edieresis" unicode="&#xeb;" horiz-adv-x="703" 
d="M528 1112q4 -28 4 -78t-5 -74q-22 -5 -70 -5.5t-81 3.5q-5 11 -5.5 23.5t0.5 29.5t0 25q-1 51 2 73q22 6 71.5 6.5t83.5 -3.5zM117 958q-2 30 -2 31v120q15 6 16 6q47 0 131 -1l7 -3q12 -47 3 -151q-20 -5 -21 -5h-115q-1 0 -19 3zM3 844q24 4 316.5 4.5t325.5 -3.5
q4 -20 4 -21v-196q0 -1 -2 -19q-4 -3 -8.5 -4.5t-9 -2t-8 -0.5t-9 0.5t-8.5 0.5h-154.5h-129.5q-1 0 -44 -2q-3 -10 -4 -20t-0.5 -23.5t0.5 -17.5q4 -5 9.5 -7.5t8.5 -2.5h10h8h124h111q2 0 38 -2q5 -24 5.5 -92.5t-2.5 -104.5q-3 -3 -6 -5t-7 -2.5t-6.5 -0.5t-7 0.5
t-7.5 0.5h-115.5h-115.5h-7h-7.5h-7.5t-7.5 -0.5t-7.5 -1.5t-7 -3q-3 -21 -3 -23q0 -3 1 -37q4 -5 10 -7t9.5 -2t11 0.5t9.5 0.5q56 -1 162.5 -1h124.5q2 0 44 -1q4 -12 5 -25.5t0 -30.5t0 -24q1 -24 0 -80q-1 -73 -2 -81q-32 -3 -33 -3q-93 -2 -197.5 -2.5t-190 0t-147 2.5
t-74.5 5l-3 2q0 2 -1 4q-1 18 -1 20v794z" />
    <glyph glyph-name="ugrave" unicode="&#xf9;" horiz-adv-x="757" 
d="M160 1110q81 104 98 125q132 -99 288 -226q-15 -24 -47 -64.5t-45 -59.5l-18 9q-49 39 -261 204zM435 841l15 6h232q1 0 21 -3q3 -30 3 -31v-247.5v-247.5q1 -158 -132 -254q-102 -73 -231 -70t-226 82q-115 93 -116 230q-1 27 -1 132v359v44q16 6 17 6h235q1 0 15 -4
q3 -6 4.5 -12.5t1 -18.5t-0.5 -13v-442v-16.5v-15.5q-1 -48 47 -68q49 -20 90 13q26 21 26 51q-1 6 -0.5 17.5t0.5 14.5v443v45z" />
    <glyph glyph-name="ucircumflex" unicode="&#xfb;" horiz-adv-x="757" 
d="M355 1002q-24 -16 -70.5 -52.5t-73.5 -54.5q-28 37 -89 115v7q0 3 1 4q102 79 192 149q2 2 31 23q19 -9 118 -84t121 -96q-10 -22 -38 -57t-53 -59q-26 18 -72.5 54.5t-66.5 50.5zM435 826l15 5q124 1 232 1q1 0 21 -3q3 -30 3 -32v-247v-247q1 -158 -132 -255
q-102 -73 -231 -70t-226 83q-115 92 -116 230q-1 26 -1 131v359v45q16 5 17 5q117 1 235 0q1 0 15 -3q3 -7 4.5 -13t1 -18.5l-0.5 -12.5v-443v-15.5v-16.5q-1 -48 47 -67q49 -21 90 12q26 22 26 52q-1 3 -0.5 15.5t0.5 15.5v443v46z" />
    <glyph glyph-name="oe" unicode="&#x153;" horiz-adv-x="1384" 
d="M411 624l-1 -12q-10 -38 24 -43q26 -4 41.5 14.5t7.5 43.5q-5 16 -17 30t-28 23t-31 10q-104 7 -173 -65q-35 -36 -37 -85q-4 -96 26 -168q0 -1 4 -23q-18 -3 -22 -3q-2 0 -9 -0.5t-11 -1.5q-23 -4 -25 -26q-2 -12 1 -24q7 -30 29 -47.5t55 -18.5q29 -1 49 -22
q9 -9 26 -24q34 -28 65 -37q107 -33 198 30q16 11 40 33q20 17 43 18q17 1 35 7q18 5 32 17.5t20.5 29t4.5 34.5q-4 33 -37 33q-3 0 -7 -1t-7 -1.5t-7 0t-8 3.5q11 57 11 61q15 82 19 110q6 46 -22 83q-53 70 -150 94q-2 -36 -3 -39q-5 -39 -9 -50q-11 -34 -41.5 -52
t-65.5 -12q-28 6 -37.5 32.5t17.5 48.5zM680 794q1 7 2.5 20t2.5 20q26 3 27 3h586q3 0 27 -3q5 -22 6.5 -102t-2.5 -133q-3 -3 -6 -5t-6.5 -2.5t-6.5 -0.5t-7.5 0.5t-7.5 0.5h-156.5h-138.5q-6 0 -12.5 -0.5t-15 -1t-13.5 -0.5q-6 -21 -2 -69q37 -2 41 -2h72h83h72h10h10.5
t9 -1t9.5 -4q4 -22 4.5 -95.5t-3.5 -102.5q-3 -3 -6 -4t-7 -1.5t-7 -0.5h-7.5h-6.5h-123h-108h-12.5t-15 -0.5t-13.5 -0.5q-6 -22 -2 -64q4 -3 10 -4.5t9.5 -2t10.5 0t9 0.5h150h138q34 0 42 -4q4 -22 5 -110.5t-3 -125.5q-3 -3 -7.5 -4.5t-8 -1.5h-9.5h-8h-276h-291h-42
q-2 12 -5 37l-11 1q-7 -3 -27 -12.5t-31 -13.5q-60 -22 -123 -26.5t-121 8.5t-111.5 41.5t-96.5 68.5t-74.5 93.5t-47.5 114.5q-58 235 105 410q134 142 333 136q92 -3 177 -45q2 -1 27 -12z" />
  </font>
</defs>
</svg>
